<svg width="1002" height="993" viewBox="0 0 1002 993" fill="none" xmlns="http://www.w3.org/2000/svg">
<path d="M879.496 497.982C879.496 707.842 709.37 877.967 499.511 877.967C289.651 877.967 119.526 707.842 119.526 497.982C119.526 288.122 289.651 117.997 499.511 117.997C709.37 117.997 879.496 288.122 879.496 497.982Z" stroke="#4C514A" stroke-opacity="0.3" stroke-width="3"/>
<path d="M791.42 722.528C849.522 644.081 874.389 545.569 860.55 448.664C846.711 351.76 795.299 264.399 717.624 205.802C639.95 147.205 542.375 122.171 446.366 136.207C350.357 150.243 263.778 202.199 205.675 280.646" stroke="#C1CAC0" stroke-width="30"/>
<path d="M211.658 275.079C153.831 353.258 128.942 451.327 142.468 547.713C155.993 644.1 206.824 730.907 283.779 789.039C360.734 847.171 457.509 871.866 552.814 857.691C648.119 843.516 734.147 791.632 791.974 713.454" stroke="#8D9989" stroke-width="35"/>
<ellipse cx="380.074" cy="348.421" rx="380.074" ry="348.421" transform="matrix(0.868629 0.495463 -0.488769 0.872413 341.094 3.92068)" fill="#96A693"/>
<ellipse cx="255.097" cy="239.806" rx="255.097" ry="239.806" transform="matrix(0.945086 0.326821 -0.321614 0.946871 342.218 182.673)" fill="#BAD3B7"/>
<ellipse cx="252.726" cy="243.023" rx="252.726" ry="243.023" transform="matrix(0.945086 0.326821 -0.321614 0.946871 337.819 199.362)" fill="#D7E0D6"/>
<rect x="181.372" y="503.81" width="78.8981" height="49.2612" fill="#AB8B8B"/>
<path fill-rule="evenodd" clip-rule="evenodd" d="M178.464 506.267C173.705 509.331 167.735 517.229 166.52 522.07C165.242 527.163 165.301 566.385 166.593 570.132C170.128 580.378 174.536 585.523 182.779 589.02C185.519 590.183 188.468 591.476 189.333 591.893C190.206 592.314 206.871 592.653 226.727 592.653C254.613 592.653 262.615 592.883 262.856 593.693C263.028 594.265 263.671 596.792 264.287 599.308C265.581 604.598 267.74 611.462 268.865 613.867C269.294 614.782 270.238 617.215 270.963 619.274C272.699 624.202 273.826 626.678 278.014 634.76C279.937 638.473 281.511 641.999 281.511 642.597C281.511 643.196 282.078 644.276 282.769 644.998C283.461 645.721 285.193 648.279 286.618 650.682C288.044 653.086 289.823 656.081 290.571 657.338C291.319 658.595 292.848 660.803 293.968 662.247C295.088 663.69 296.004 665.282 296.004 665.782C296.004 666.284 296.378 666.694 296.836 666.694C297.294 666.694 298.603 668.099 299.746 669.814C300.889 671.53 302.247 673.413 302.764 673.999C303.281 674.584 305.538 677.144 307.78 679.687C312.916 685.513 335.164 706.291 339.778 709.571C341.684 710.925 344.945 713.24 347.024 714.714C371.419 732.002 398.928 744.189 432.327 752.507C434.32 753.003 437.133 753.74 438.577 754.144C440.021 754.547 442.596 754.879 444.298 754.879C446 754.879 448.157 755.255 449.092 755.714C450.944 756.624 475.303 758.339 486.223 758.327C498.424 758.314 522.21 756.721 524.106 755.789C525.125 755.289 527.189 754.879 528.691 754.879C530.195 754.879 533.788 754.282 536.677 753.552C539.566 752.823 543.69 751.894 545.84 751.487C547.99 751.081 550.117 750.54 550.566 750.285C551.017 750.03 554.148 749.136 557.527 748.298C560.904 747.46 564.892 746.167 566.386 745.425C567.881 744.682 569.619 744.072 570.249 744.068C570.878 744.066 572.101 743.743 572.966 743.352C591.828 734.817 600.28 730.762 606.242 727.388C610.227 725.131 613.998 723.28 614.62 723.275C615.243 723.269 615.753 722.911 615.753 722.477C615.753 722.045 618.096 720.279 620.961 718.554C623.826 716.829 628.186 713.908 630.653 712.063C638.311 706.331 661.957 684.775 664.907 680.837C666.449 678.778 668.222 676.808 668.846 676.459C669.47 676.11 671.24 673.864 672.779 671.467C674.318 669.071 677.314 664.864 679.435 662.119C689.258 649.41 697.749 633.415 704.874 614.198C708.47 604.499 708.678 603.461 707.012 603.483C706.05 603.495 700.32 610.469 699.164 613.035C698.469 614.579 687.118 628.809 683.35 632.862C678.508 638.069 656.942 657.895 651.822 661.847C649.643 663.527 645.63 666.286 642.903 667.977C640.176 669.668 637.528 671.474 637.018 671.992C636.508 672.51 635.285 673.376 634.301 673.918C622.155 680.595 617.002 683.171 605.789 688.17C590.513 694.98 582.114 698.307 580.197 698.307C579.449 698.307 577.258 698.926 575.328 699.681C571.697 701.103 568.991 701.752 558.234 703.782C554.747 704.44 549.855 705.381 547.364 705.871C536.969 707.916 528.032 708.482 506.15 708.482C484.818 708.482 477.939 708.058 464.483 705.917C457.687 704.835 448.565 702.863 443.65 701.413C441.408 700.753 437.74 699.744 435.498 699.173C429.154 697.557 411.213 690.843 406.059 688.156C405.063 687.637 400.783 685.548 396.548 683.513C392.314 681.479 387.83 679.17 386.584 678.381C385.339 677.593 383.618 676.716 382.761 676.432C381.903 676.148 377.891 673.56 373.843 670.681C369.796 667.802 365.535 664.885 364.375 664.198C360.082 661.659 355.319 657.691 343.697 646.972C329.878 634.227 325.797 629.964 320.57 622.81C318.48 619.951 316.474 617.611 316.113 617.611C315.441 617.611 314.461 616.093 311.816 610.955C310.992 609.354 309.785 607.482 309.137 606.795C308.487 606.109 306.403 602.74 304.505 599.308C302.607 595.876 300.757 592.873 300.395 592.634C298.151 591.156 285.71 560.897 283.299 551.056C281.261 542.741 286.626 543.569 234.771 543.569C204.952 543.569 188.389 543.269 187.248 542.708C185.599 541.897 185.496 540.79 185.496 523.74C185.496 510.766 185.188 505.35 184.409 504.635C183.004 503.344 183.002 503.345 178.464 506.267Z" fill="#AB8B8B"/>
<ellipse cx="144.972" cy="56.7103" rx="144.972" ry="56.7103" transform="matrix(0.8271 0.562055 -0.62194 0.783065 317.831 506.547)" fill="#AB8B8B"/>
<ellipse cx="241.751" cy="207.584" rx="241.751" ry="207.584" transform="matrix(0.894943 0.44618 -0.472569 0.881294 355.196 248.202)" fill="#2D2828" fill-opacity="0.2"/>
<rect x="188.112" y="470.642" width="145.887" height="97.2416" rx="27" fill="#D99094"/>
<ellipse cx="225.115" cy="222.093" rx="225.115" ry="222.093" transform="matrix(0.83735 0.546666 -0.574656 0.818395 443 205)" fill="#C28286"/>
<ellipse cx="186.76" cy="183.902" rx="186.76" ry="183.902" transform="matrix(0.985493 0.169718 -0.182129 0.983275 352.988 299.348)" fill="#EEC6C9"/>
<ellipse cx="225.871" cy="213.708" rx="225.871" ry="213.708" transform="matrix(0.889717 0.456513 -0.48317 0.875527 407.547 212.167)" fill="#D99094"/>
<rect x="496.715" y="547.114" width="102.691" height="80.7415" fill="#EEC9BB"/>
<rect x="393.24" y="507.919" width="78.3898" height="78.3898" fill="#EEC9BB"/>
<rect x="416.757" y="380.144" width="109.746" height="79.9576" fill="#ADD6E9"/>
<rect x="555.507" y="413.068" width="88.5805" height="120.72" fill="#EDBCBC"/>
<path fill-rule="evenodd" clip-rule="evenodd" d="M511.813 688.56C512.079 688.288 512.093 670.323 511.844 648.638C511.434 613.031 511.546 608.902 513.002 606.026C515.766 600.56 520.694 600.013 526.544 604.523C531.526 608.365 536.082 609.775 543.512 609.775C549.595 609.775 551.116 609.4 554.852 606.979C560.791 603.129 564.972 597.628 566.836 591.209C568.291 586.196 568.291 585.336 566.841 579.574C564.974 572.149 561.064 566.734 554.892 563.027C551.025 560.704 549.416 560.351 542.772 560.366C536.297 560.383 534.333 560.802 530.083 563.075C527.319 564.554 525.056 566.126 525.056 566.569C525.056 567.604 520.689 569.646 518.474 569.646C517.537 569.646 515.726 568.51 514.449 567.122L512.127 564.597L511.85 532.339L511.574 500.081L478.971 500.361L446.368 500.643L443.575 503.84C439.113 508.945 440.12 513.264 448.016 522.894C451.039 526.582 454.189 535.601 454.188 540.565C454.187 545.915 449.673 555.69 445.576 559.213C439.237 564.665 435.16 566.187 426.895 566.184C420.449 566.183 418.458 565.767 414.343 563.564C407.005 559.635 403.848 556.488 400.615 549.875C395.571 539.558 396.794 531.043 405.036 519.115C410.238 511.585 410.538 507.724 406.243 503.518L403.308 500.643L362.155 500.368L321 500.093L321.588 509.177C323.115 532.757 329.416 555.994 340.879 580.31C367.297 636.349 419.834 676.265 480.046 686.048C495.041 688.484 510.677 689.72 511.813 688.56Z" fill="#EEC9BB"/>
<path fill-rule="evenodd" clip-rule="evenodd" d="M321.448 506.179C321.724 506.44 339.987 506.453 362.032 506.209C398.23 505.807 402.427 505.916 405.352 507.344C410.908 510.056 411.464 514.891 406.879 520.629C402.974 525.516 401.54 529.985 401.54 537.273C401.54 543.241 401.921 544.733 404.382 548.398C408.296 554.223 413.889 558.325 420.414 560.153C425.51 561.581 426.385 561.581 432.243 560.159C439.791 558.327 445.295 554.491 449.064 548.436C451.425 544.644 451.785 543.065 451.769 536.548C451.752 530.196 451.326 528.27 449.015 524.101C447.512 521.389 445.913 519.169 445.463 519.169C444.411 519.169 442.335 514.885 442.335 512.712C442.335 511.793 443.49 510.017 444.901 508.764L447.468 506.487L480.262 506.215L513.055 505.944L512.769 473.962L512.483 441.98L509.233 439.24C504.043 434.863 499.652 435.851 489.862 443.596C486.113 446.562 476.945 449.652 471.899 449.651C466.46 449.65 456.523 445.222 452.941 441.204C447.399 434.985 445.851 430.985 445.854 422.878C445.855 416.555 446.278 414.602 448.518 410.565C452.512 403.367 455.711 400.27 462.434 397.099C472.922 392.151 481.579 393.35 493.704 401.435C501.36 406.538 505.285 406.832 509.561 402.62L512.483 399.74L512.763 359.371L513.042 319L503.807 319.577C479.836 321.074 456.213 327.256 431.494 338.501C374.525 364.415 333.946 415.951 324.001 475.016C321.524 489.726 320.268 505.064 321.448 506.179Z" fill="#ADD6E9"/>
<path fill-rule="evenodd" clip-rule="evenodd" d="M510.485 319.44C510.233 319.712 510.22 337.677 510.456 359.362C510.844 394.969 510.738 399.098 509.36 401.974C506.745 407.44 502.083 407.987 496.549 403.477C491.836 399.635 487.525 398.225 480.497 398.225C474.742 398.225 473.303 398.6 469.768 401.021C464.15 404.871 460.195 410.372 458.432 416.791C457.055 421.804 457.055 422.664 458.426 428.426C460.193 435.851 463.892 441.266 469.731 444.973C473.389 447.296 474.912 447.649 481.196 447.634C487.323 447.617 489.18 447.198 493.201 444.925C495.816 443.446 497.957 441.874 497.957 441.431C497.957 440.396 502.088 438.354 504.184 438.354C505.07 438.354 506.783 439.49 507.992 440.878L510.188 443.403L510.449 475.661L510.711 507.919L541.554 507.639L572.397 507.357L575.04 504.16C579.261 499.055 578.309 494.736 570.839 485.106C567.979 481.418 564.999 472.399 565 467.435C565.001 462.085 569.271 452.31 573.147 448.787C579.144 443.335 583.001 441.813 590.82 441.816C596.918 441.817 598.801 442.233 602.694 444.436C609.637 448.365 612.623 451.512 615.681 458.125C620.453 468.442 619.296 476.957 611.5 488.885C606.578 496.415 606.295 500.276 610.357 504.482L613.134 507.357L652.067 507.632L691 507.907L690.444 498.823C689 475.243 683.038 452.006 672.194 427.69C647.201 371.651 597.5 331.735 540.538 321.952C526.352 319.516 511.559 318.28 510.485 319.44Z" fill="#EDBCBC"/>
<path fill-rule="evenodd" clip-rule="evenodd" d="M690.58 506.062C690.32 505.806 673.176 505.794 652.48 506.032C618.498 506.425 614.558 506.318 611.813 504.922C606.597 502.272 606.075 497.547 610.379 491.939C614.045 487.163 615.391 482.794 615.391 475.671C615.391 469.839 615.034 468.38 612.723 464.799C609.049 459.105 603.798 455.097 597.673 453.31C592.888 451.914 592.067 451.915 586.568 453.305C579.482 455.095 574.315 458.844 570.776 464.761C568.56 468.468 568.223 470.011 568.238 476.38C568.253 482.589 568.653 484.471 570.822 488.545C572.234 491.196 573.735 493.366 574.157 493.366C575.145 493.366 577.094 497.552 577.094 499.676C577.094 500.574 576.009 502.31 574.685 503.535L572.275 505.761L541.489 506.026L510.703 506.291L510.971 537.548L511.24 568.805L514.291 571.484C519.163 575.761 523.286 574.796 532.476 567.226C535.996 564.328 544.602 561.308 549.34 561.309C554.446 561.31 563.775 565.637 567.137 569.565C572.34 575.643 573.793 579.551 573.79 587.475C573.789 593.655 573.392 595.564 571.289 599.509C567.54 606.545 564.537 609.571 558.225 612.67C548.379 617.506 540.252 616.334 528.87 608.432C521.683 603.445 517.998 603.158 513.984 607.275L511.24 610.089L510.978 649.544L510.716 689L519.385 688.436C541.889 686.973 564.065 680.931 587.271 669.941C640.752 644.613 678.847 594.245 688.183 536.518C690.508 522.142 691.688 507.151 690.58 506.062Z" fill="#BCD2BC"/>
<path fill-rule="evenodd" clip-rule="evenodd" d="M670.609 590.903C677.463 577.714 682.844 563.484 686.487 548.378C710.562 448.528 649.548 348.184 550.207 324.255C450.867 300.326 350.818 361.872 326.742 461.722C326.446 462.948 326.164 464.174 325.894 465.4C364.347 391.408 449.169 350.148 533.48 370.458C631.601 394.094 692.331 492.278 670.609 590.903Z" fill="#918585" fill-opacity="0.3"/>
<path fill-rule="evenodd" clip-rule="evenodd" d="M365.456 385.984C347.236 407.159 333.68 432.851 326.753 461.877C303.291 560.186 364.749 659.503 464.023 683.707C563.298 707.912 662.795 647.838 686.258 549.529C688.722 539.203 690.249 528.865 690.895 518.605C690.525 520.902 690.113 523.202 689.656 525.504C669.859 625.308 574.88 690.3 477.513 670.667C380.146 651.035 317.264 554.213 337.061 454.41C342.083 429.089 351.945 406.01 365.456 385.984Z" fill="#746767" fill-opacity="0.5"/>
<path fill-rule="evenodd" clip-rule="evenodd" d="M386.084 363C361.777 385.801 343.623 415.657 335.133 450.475C311.561 547.145 371.415 645.461 468.82 670.071C566.225 694.68 664.296 636.264 687.867 539.594C690.823 527.473 692.467 515.326 692.89 503.302C692.39 505.81 691.834 508.318 691.223 510.826C668.251 605.037 574.719 662.485 482.314 639.138C389.909 615.792 333.623 520.493 356.595 426.282C362.359 402.641 372.567 381.315 386.084 363Z" fill="#070707" fill-opacity="0.05"/>
<path fill-rule="evenodd" clip-rule="evenodd" d="M409.846 403.332C450.311 366.858 513.05 356.739 569.174 382.457C623.356 407.285 656.266 458.591 657.393 511.116C616.928 547.589 554.189 557.709 498.065 531.991C443.883 507.162 410.973 455.856 409.846 403.332Z" fill="white" fill-opacity="0.3"/>
</svg>
